<svg width="24" height="24" viewBox="0 0 24 24" fill="currentColor" xmlns="http://www.w3.org/2000/svg">
<path fill-rule="evenodd" clip-rule="evenodd" d="M20.307 18.9194C20.3615 18.9266 20.4159 18.934 20.4703 18.9417L20.7438 18.9801C21.9346 19.1472 23 18.2395 23 17.0579V16.1562C23 15.3111 22.4592 14.5573 21.649 14.2731C20.713 13.9447 19.7466 13.7309 18.7711 13.6316C19.789 14.3675 20.4203 15.5592 20.4203 16.8594V17.979C20.4203 18.3041 20.381 18.619 20.307 18.9194ZM16.1812 12.432C16.5868 12.5995 17.0324 12.692 17.5 12.692C19.3814 12.692 20.9065 11.1939 20.9065 9.34597C20.9065 7.49801 19.3814 5.99994 17.5 5.99994C17.4443 5.99994 17.3889 6.00125 17.3338 6.00385C17.6759 6.73246 17.8671 7.546 17.8671 8.40419C17.8671 9.9807 17.2219 11.4065 16.1812 12.432Z"/>
<path fill-rule="evenodd" clip-rule="evenodd" d="M4.0739 18.9194C4.01945 18.9266 3.96502 18.934 3.91061 18.9417L3.6371 18.9801C2.44628 19.1472 1.38087 18.2395 1.38087 17.0579V16.1562C1.38087 15.3111 1.92169 14.5573 2.73188 14.2731C3.66794 13.9447 4.6343 13.7309 5.60982 13.6316C4.59194 14.3675 3.9606 15.5592 3.9606 16.8594V17.979C3.9606 18.3041 3.99995 18.619 4.0739 18.9194ZM8.19974 12.432C7.79409 12.5995 7.34848 12.692 6.88087 12.692C4.99956 12.692 3.47445 11.1939 3.47445 9.34597C3.47445 7.49801 4.99956 5.99994 6.88087 5.99994C6.93661 5.99994 6.99203 6.00125 7.0471 6.00385C6.70499 6.73246 6.5138 7.546 6.5138 8.40419C6.5138 9.9807 7.15899 11.4065 8.19974 12.432Z"/>
<path fill-rule="evenodd" clip-rule="evenodd" d="M16.3671 8.40419C16.3671 6.10986 14.5072 4.24994 12.2128 4.24994C9.9185 4.24994 8.05857 6.10986 8.05857 8.40419C8.05857 10.6985 9.9185 12.5584 12.2128 12.5584C14.5072 12.5584 16.3671 10.6985 16.3671 8.40419Z"/>
<path fill-rule="evenodd" clip-rule="evenodd" d="M7.153 14.5214C10.425 13.3528 14.0007 13.3528 17.2727 14.5214C18.2607 14.8743 18.9203 15.8102 18.9203 16.8594V17.979C18.9203 19.4459 17.621 20.5728 16.1687 20.3654L15.8352 20.3177C13.4325 19.9745 10.9932 19.9745 8.5905 20.3177L8.25695 20.3654C6.8047 20.5728 5.50539 19.4459 5.50539 17.979V16.8594C5.50539 15.8102 6.16494 14.8743 7.153 14.5214Z"/>
</svg>
