<svg width="24" height="24" viewBox="0 0 24 24" fill="none" xmlns="http://www.w3.org/2000/svg">
<g clip-path="url(#clip0_499_2534)">
<path d="M12 1.69324C6.201 1.69324 1.5 5.90164 1.5 11.0928C1.5 13.1652 2.2554 15.0762 3.5268 16.629C3.9924 17.1978 4.2054 17.9316 4.065 18.6528L3.492 21.591C3.396 22.0842 3.912 22.47 4.3578 22.2378L7.8456 20.4222C8.3382 20.166 8.9052 20.0826 9.447 20.2056C10.2642 20.391 11.1186 20.4924 12 20.4924C17.799 20.4924 22.5 16.284 22.5 11.0928C22.5 5.90164 17.799 1.69324 12 1.69324Z" fill="#C8E1FF"/>
<path d="M7.65239 10.218C8.30159 10.218 8.82719 10.7442 8.82719 11.3928C8.82719 11.7042 8.70359 12.003 8.48279 12.2238C8.26259 12.444 7.96379 12.5682 7.65179 12.5682C7.00259 12.5682 6.47699 12.042 6.47699 11.3934C6.47699 10.7448 7.00319 10.2186 7.65179 10.2186L7.65239 10.218Z" fill="#6391FF"/>
<path d="M16.3476 12.5676C16.9964 12.5676 17.5224 12.0416 17.5224 11.3928C17.5224 10.744 16.9964 10.218 16.3476 10.218C15.6988 10.218 15.1728 10.744 15.1728 11.3928C15.1728 12.0416 15.6988 12.5676 16.3476 12.5676Z" fill="#6391FF"/>
<path d="M12 12.5676C12.6488 12.5676 13.1748 12.0416 13.1748 11.3928C13.1748 10.744 12.6488 10.218 12 10.218C11.3512 10.218 10.8252 10.744 10.8252 11.3928C10.8252 12.0416 11.3512 12.5676 12 12.5676Z" fill="#6391FF"/>
</g>
<defs>
<clipPath id="clip0_499_2534">
<rect width="24" height="24" fill="white"/>
</clipPath>
</defs>
</svg>
