<svg width="24" height="24" viewBox="0 0 24 24" fill="none" xmlns="http://www.w3.org/2000/svg">
<g clip-path="url(#clip0_384_4306)">
<path d="M16.8054 0.974396H7.19465C5.87215 0.974396 4.80005 2.04649 4.80005 3.369V20.6316C4.80005 21.9541 5.87215 23.0262 7.19465 23.0262H16.8054C18.1279 23.0262 19.2 21.9541 19.2 20.6316V3.369C19.2 2.04649 18.1279 0.974396 16.8054 0.974396Z" fill="#5E403B"/>
<path d="M15.9031 13.7112C16.8482 13.7112 17.6143 12.9451 17.6143 12C17.6143 11.0549 16.8482 10.2888 15.9031 10.2888C14.958 10.2888 14.1919 11.0549 14.1919 12C14.1919 12.9451 14.958 13.7112 15.9031 13.7112Z" fill="#FFDE57"/>
<path d="M15.903 12.6708C16.2735 12.6708 16.5738 12.3705 16.5738 12C16.5738 11.6295 16.2735 11.3292 15.903 11.3292C15.5325 11.3292 15.2322 11.6295 15.2322 12C15.2322 12.3705 15.5325 12.6708 15.903 12.6708Z" fill="#CB8C00"/>
<path d="M15.9041 11.3316H13.0553C12.6855 11.3316 12.3857 11.6314 12.3857 12.0012C12.3857 12.371 12.6855 12.6708 13.0553 12.6708H15.9041C16.274 12.6708 16.5737 12.371 16.5737 12.0012C16.5737 11.6314 16.274 11.3316 15.9041 11.3316Z" fill="#CB8C00"/>
</g>
<defs>
<clipPath id="clip0_384_4306">
<rect width="24" height="24" fill="white"/>
</clipPath>
</defs>
</svg>
