<svg width="24" height="24" viewBox="0 0 24 24" fill="none" xmlns="http://www.w3.org/2000/svg">
<g clip-path="url(#clip0_499_2512)">
<path d="M6.43985 20.4078C9.00234 20.4078 11.0796 16.6435 11.0796 12C11.0796 7.35646 9.00234 3.59216 6.43985 3.59216C3.87736 3.59216 1.80005 7.35646 1.80005 12C1.80005 16.6435 3.87736 20.4078 6.43985 20.4078Z" fill="#E5E8EB"/>
<path d="M17.5602 20.4078C20.1227 20.4078 22.2 16.6435 22.2 12C22.2 7.35646 20.1227 3.59216 17.5602 3.59216C14.9977 3.59216 12.9204 7.35646 12.9204 12C12.9204 16.6435 14.9977 20.4078 17.5602 20.4078Z" fill="#E5E8EB"/>
<path d="M5.25069 14.3442C6.54536 14.3442 7.59489 13.2946 7.59489 12C7.59489 10.7053 6.54536 9.65576 5.25069 9.65576C3.95603 9.65576 2.90649 10.7053 2.90649 12C2.90649 13.2946 3.95603 14.3442 5.25069 14.3442Z" fill="#191F28"/>
<path d="M16.6224 14.3442C17.9171 14.3442 18.9666 13.2946 18.9666 12C18.9666 10.7053 17.9171 9.65576 16.6224 9.65576C15.3277 9.65576 14.2782 10.7053 14.2782 12C14.2782 13.2946 15.3277 14.3442 16.6224 14.3442Z" fill="#191F28"/>
<path d="M4.29246 11.7384C4.60196 11.7384 4.85286 11.4875 4.85286 11.178C4.85286 10.8685 4.60196 10.6176 4.29246 10.6176C3.98296 10.6176 3.73206 10.8685 3.73206 11.178C3.73206 11.4875 3.98296 11.7384 4.29246 11.7384Z" fill="white"/>
<path d="M15.726 11.7384C16.0355 11.7384 16.2864 11.4875 16.2864 11.178C16.2864 10.8685 16.0355 10.6176 15.726 10.6176C15.4165 10.6176 15.1656 10.8685 15.1656 11.178C15.1656 11.4875 15.4165 11.7384 15.726 11.7384Z" fill="white"/>
</g>
<defs>
<clipPath id="clip0_499_2512">
<rect width="24" height="24" fill="white"/>
</clipPath>
</defs>
</svg>
