<svg width="24" height="24" viewBox="0 0 24 24" fill="none" xmlns="http://www.w3.org/2000/svg">
<g clip-path="url(#clip0_492_2487)">
<path d="M1.20001 7.6218V17.5464C1.20001 18.237 1.44961 18.8628 1.85041 19.3632L8.71861 13.8882L1.20001 7.6218Z" fill="#D0D5DA"/>
<path d="M22.1496 19.3626C22.5504 18.8628 22.8 18.2364 22.8 17.5458V7.6218L15.2808 13.8876L22.1496 19.3626Z" fill="#D0D5DA"/>
<path d="M10.0128 13.6938L1.20001 7.6218L8.71921 13.8876L10.0128 14.9658C11.2092 15.8934 12.7908 15.8934 13.9878 14.9658L15.2814 13.8876L22.8006 7.6218L13.9878 13.6938C12.7914 14.5182 11.2098 14.5182 10.0128 13.6938Z" fill="#AFB7C0"/>
<path d="M13.9872 14.9658C12.7908 15.8934 11.2092 15.8934 10.0122 14.9658L8.7186 13.8876L1.8504 19.3626C2.3856 20.0292 3.1974 20.4648 4.1184 20.4648H19.8804C20.802 20.4648 21.6138 20.0292 22.1484 19.3626L15.2802 13.8876L13.9872 14.9658Z" fill="#E5E9EE"/>
<path d="M19.8 3.5352H4.20001C2.54341 3.5352 1.20001 4.8786 1.20001 6.5352V7.6218L10.0128 13.6938C11.2092 14.5182 12.7908 14.5182 13.9878 13.6938L22.8006 7.6218V6.5352C22.8006 4.8786 21.4566 3.5352 19.8 3.5352Z" fill="#E5E9EE"/>
</g>
<defs>
<clipPath id="clip0_492_2487">
<rect width="24" height="24" fill="white"/>
</clipPath>
</defs>
</svg>
