<svg width="24" height="24" viewBox="0 0 24 24" fill="none" xmlns="http://www.w3.org/2000/svg">
<g clip-path="url(#clip0_499_2522)">
<path fill-rule="evenodd" clip-rule="evenodd" d="M17.8992 20.7996V3.20037C17.8992 2.53737 17.3622 2.00037 16.6992 2.00037H6.89942L0.900024 8.00037V20.7996C0.900024 21.4626 1.43702 21.9996 2.10002 21.9996H16.6992C17.3622 21.9996 17.8992 21.4626 17.8992 20.7996Z" fill="#E5E9EE"/>
<path fill-rule="evenodd" clip-rule="evenodd" d="M5.70002 8.00037H0.900024L6.89942 2.00037V6.80037C6.89942 7.46337 6.36242 8.00037 5.69942 8.00037H5.70002Z" fill="#C0C7D1"/>
<path d="M18.2748 8.90307L9.7738 17.4041L12.9982 20.6285L21.4992 12.1275L18.2748 8.90307Z" fill="#FFAA00"/>
<path fill-rule="evenodd" clip-rule="evenodd" d="M22.8301 10.7964L21.4993 12.1272L18.2749 8.90281L19.6051 7.57261C19.9651 7.21261 20.5483 7.21261 20.9083 7.57261L22.8295 9.49381C23.1895 9.85381 23.1895 10.437 22.8295 10.797L22.8301 10.7964Z" fill="#FF9000"/>
<path fill-rule="evenodd" clip-rule="evenodd" d="M9.02765 21.6924L10.6033 21.27L9.13205 19.7982L8.70965 21.3744C8.65805 21.5676 8.83445 21.744 9.02765 21.6924Z" fill="#313D4C"/>
<path fill-rule="evenodd" clip-rule="evenodd" d="M9.13208 19.7982L10.6039 21.27L12.9985 20.628L9.77408 17.4042L9.13208 19.7982Z" fill="#FFCCA8"/>
</g>
<defs>
<clipPath id="clip0_499_2522">
<rect width="24" height="24" fill="white"/>
</clipPath>
</defs>
</svg>
