<svg width="24" height="24" viewBox="0 0 24 24" fill="none" xmlns="http://www.w3.org/2000/svg">
<g clip-path="url(#clip0_491_481)">
<path d="M7.8792 11.6478C9.94397 11.6478 11.6178 9.97397 11.6178 7.9092C11.6178 5.84443 9.94397 4.1706 7.8792 4.1706C5.81443 4.1706 4.1406 5.84443 4.1406 7.9092C4.1406 9.97397 5.81443 11.6478 7.8792 11.6478Z" fill="#8BBDFF"/>
<path d="M7.8792 12.7914C2.8548 12.7914 0.9 16.2174 0.9 17.811C0.9 19.4046 5.0604 19.8288 7.8792 19.8288C10.698 19.8288 14.8584 19.4046 14.8584 17.811C14.8584 16.2174 12.9042 12.7914 7.8792 12.7914Z" fill="#8BBDFF"/>
<path d="M16.1208 11.6478C18.1856 11.6478 19.8594 9.97397 19.8594 7.9092C19.8594 5.84443 18.1856 4.1706 16.1208 4.1706C14.056 4.1706 12.3822 5.84443 12.3822 7.9092C12.3822 9.97397 14.056 11.6478 16.1208 11.6478Z" fill="#3180F3"/>
<path d="M16.1208 12.7914C11.0964 12.7914 9.1416 16.2174 9.1416 17.811C9.1416 19.4046 13.302 19.8288 16.1208 19.8288C18.9396 19.8288 23.1 19.4046 23.1 17.811C23.1 16.2174 21.1458 12.7914 16.1208 12.7914Z" fill="#3180F3"/>
</g>
<defs>
<clipPath id="clip0_491_481">
<rect width="24" height="24" fill="white"/>
</clipPath>
</defs>
</svg>
