<svg width="24" height="24" viewBox="0 0 24 24" fill="none" xmlns="http://www.w3.org/2000/svg">
<g clip-path="url(#clip0_384_4314)">
<path d="M20.6346 2.86619C20.5584 2.40599 20.2854 1.97279 19.8078 1.70279C19.3224 1.42799 18.7002 1.43279 18.219 1.71479C17.4696 2.15399 17.2266 3.00839 17.4906 3.71639C17.6568 4.16219 17.502 4.66679 17.1654 5.00339L5.02981 17.1384C4.69321 17.475 4.18921 17.6298 3.74281 17.4636C3.03481 17.1996 2.18041 17.4426 1.74121 18.1926C1.45921 18.6738 1.45441 19.296 1.72921 19.7814C1.99921 20.2584 2.43241 20.5314 2.89261 20.6082C3.16321 20.6532 3.37321 20.8632 3.41821 21.1338C3.49501 21.5946 3.76801 22.0284 4.24681 22.2984C4.73101 22.572 5.35141 22.5672 5.83141 22.287C6.57421 21.8532 6.81902 21.0156 6.57001 20.3136C6.41341 19.8708 6.57062 19.3758 6.90302 19.0434L19.0692 6.87659C19.4016 6.54419 19.8966 6.38639 20.3394 6.54359C21.042 6.79259 21.879 6.54779 22.3128 5.80499C22.5936 5.32439 22.5978 4.70459 22.3242 4.22039C22.0542 3.74219 21.6204 3.46859 21.1596 3.39239C20.889 3.34739 20.679 3.13679 20.6346 2.86619Z" fill="#A1A4A4"/>
<path d="M3.4187 2.86619C3.4949 2.40599 3.7679 1.97279 4.2455 1.70279C4.7309 1.42799 5.3531 1.43279 5.8343 1.71479C6.5837 2.15399 6.8267 3.00839 6.5627 3.71639C6.3965 4.16219 6.5513 4.66679 6.8879 5.00339L19.0229 17.1384C19.3595 17.475 19.8635 17.6298 20.3099 17.4636C21.0179 17.1996 21.8723 17.4426 22.3115 18.1926C22.5935 18.6738 22.5983 19.296 22.3235 19.7814C22.0535 20.2584 21.6203 20.5314 21.1601 20.6082C20.8895 20.6532 20.6795 20.8632 20.6345 21.1338C20.5577 21.5946 20.2847 22.0284 19.8059 22.2984C19.3217 22.572 18.7013 22.5672 18.2213 22.287C17.4785 21.8532 17.2337 21.0156 17.4827 20.3136C17.6393 19.8708 17.4821 19.3758 17.1497 19.0434L4.9841 6.87659C4.6517 6.54419 4.1567 6.38639 3.7139 6.54359C3.0113 6.79259 2.1743 6.54779 1.7405 5.80499C1.4597 5.32439 1.4555 4.70459 1.7291 4.22039C1.9991 3.74219 2.4329 3.46859 2.8937 3.39239C3.1643 3.34739 3.3743 3.13679 3.4187 2.86619Z" fill="#A1A4A4"/>
<path d="M12.0271 18.0876C7.71905 18.0876 4.22705 17.7342 4.22705 12.0366C4.22705 7.7286 7.71905 4.2366 12.0271 4.2366C16.335 4.2366 19.827 7.7286 19.827 12.0366C19.827 17.7342 16.335 18.0876 12.0271 18.0876Z" fill="#CACBCB"/>
<path d="M15.8976 14.5122V18.1536C15.8976 19.0428 15.177 19.7634 14.2878 19.7634H9.76678C8.87758 19.7634 8.15698 19.0428 8.15698 18.1536V14.5122H15.8976Z" fill="#CACBCB"/>
<path d="M15.9324 11.5146C15.9324 10.6434 15.2262 9.93719 14.355 9.93719C13.4838 9.93719 12.7776 10.6434 12.7776 11.5146V12.0546C12.7776 12.9258 13.4838 13.632 14.355 13.632C15.2262 13.632 15.9324 12.9258 15.9324 12.0546V11.5146Z" fill="black"/>
<path d="M11.2759 11.5146C11.2759 10.6434 10.5697 9.93719 9.69849 9.93719C8.82732 9.93719 8.12109 10.6434 8.12109 11.5146V12.0546C8.12109 12.9258 8.82732 13.632 9.69849 13.632C10.5697 13.632 11.2759 12.9258 11.2759 12.0546V11.5146Z" fill="black"/>
<path d="M10.6897 19.7634V18.1794C10.6897 17.9328 10.4905 17.7336 10.2439 17.7336C9.9973 17.7336 9.7981 17.9328 9.7981 18.1794V19.7634H10.6897Z" fill="#A1A4A4"/>
<path d="M12.4722 19.7634V18.1794C12.4722 17.9328 12.273 17.7336 12.0264 17.7336C11.7798 17.7336 11.5806 17.9328 11.5806 18.1794V19.7634H12.4722Z" fill="#A1A4A4"/>
<path d="M14.2554 19.7634V18.1794C14.2554 17.9328 14.0562 17.7336 13.8096 17.7336C13.563 17.7336 13.3638 17.9328 13.3638 18.1794V19.7634H14.2554Z" fill="#A1A4A4"/>
<path d="M11.2332 14.4468L11.6202 13.8966C11.8242 13.6062 12.2562 13.6104 12.4542 13.9044L12.8256 14.4546C13.0524 14.7912 12.8118 15.2442 12.4056 15.2442H11.6472C11.2368 15.2442 10.9968 14.7816 11.2326 14.4462L11.2332 14.4468Z" fill="black"/>
</g>
<defs>
<clipPath id="clip0_384_4314">
<rect width="24" height="24" fill="white"/>
</clipPath>
</defs>
</svg>
