<svg width="24" height="24" viewBox="0 0 24 24" fill="none" xmlns="http://www.w3.org/2000/svg">
<g clip-path="url(#clip0_491_622)">
<path d="M20.85 12C20.85 10.923 21.723 10.05 22.8 10.05V5.1276C22.8 4.5852 22.3602 4.146 21.8184 4.146H2.18155C1.63915 4.146 1.19995 4.5858 1.19995 5.1276V10.05C2.27695 10.05 3.14995 10.923 3.14995 12C3.14995 13.077 2.27695 13.95 1.19995 13.95V18.8724C1.19995 19.4148 1.63975 19.854 2.18155 19.854H21.8178C22.3602 19.854 22.7994 19.4142 22.7994 18.8724V13.95C21.7224 13.95 20.85 13.077 20.85 12Z" fill="#FFCD00"/>
<path d="M15.3036 10.7669L13.0206 10.4351L12 8.36694L10.9794 10.4351L8.69641 10.7669L10.3482 12.3773L9.95821 14.6507L12 13.5773L14.0418 14.6507L13.6518 12.3773L15.3036 10.7669Z" fill="#FFAA00"/>
</g>
<defs>
<clipPath id="clip0_491_622">
<rect width="24" height="24" fill="white"/>
</clipPath>
</defs>
</svg>
